<svg xmlns="http://www.w3.org/2000/svg" width="13" height="15.856" viewBox="0 0 13.938 17">
  <defs>
    <style>
      .cls-1 {
        fill: #787878;
        fill-rule: evenodd;
      }
    </style>
  </defs>
  <path id="Shield-icon" class="cls-1" d="M231.983,510.377c-0.009-.459-0.017-0.893-0.017-1.312a0.589,0.589,0,0,0-.583-0.595,7.955,7.955,0,0,1-5.977-2.3,0.576,0.576,0,0,0-.813,0,7.952,7.952,0,0,1-5.975,2.3,0.589,0.589,0,0,0-.584.595c0,0.419-.008.853-0.016,1.312-0.08,4.272-.19,10.121,6.791,12.59a0.569,0.569,0,0,0,.382,0C232.172,520.5,232.062,514.648,231.983,510.377ZM225,521.774c-5.987-2.219-5.9-7.08-5.816-11.374,0-.258.009-0.507,0.013-0.752A8.891,8.891,0,0,0,225,507.4a8.891,8.891,0,0,0,5.8,2.245c0,0.244.008,0.494,0.012,0.752C230.9,514.694,230.987,519.555,225,521.774Zm2.008-9.341-2.815,2.872-1.2-1.226a0.576,0.576,0,0,0-.825,0,0.606,0.606,0,0,0,0,.842l1.614,1.646a0.576,0.576,0,0,0,.825,0l3.227-3.292a0.6,0.6,0,0,0,0-.842A0.574,0.574,0,0,0,227.008,512.433Z" transform="translate(-218.031 -506)"/>
</svg>
