<svg xmlns="http://www.w3.org/2000/svg" width="68" height="66" viewBox="0 0 68 66">
  <defs>
    <style>
      .cls-1 {
        fill: #3172b9;
        fill-rule: evenodd;
      }
    </style>
  </defs>
  <path id="icon" class="cls-1" d="M341.393,1086a18.072,18.072,0,0,0-18.493,17.51l-0.124,4.97a2.486,2.486,0,0,0,4.97.11l0.124-4.97a13.08,13.08,0,1,1,12.753,13.25l-31.123-.67a17.906,17.906,0,1,0,17.6,18.29l0.123-4.92a2.486,2.486,0,0,0-4.971-.11l-0.123,4.92a13.08,13.08,0,1,1-12.752-13.25l31.123,0.67A17.906,17.906,0,1,0,341.393,1086Z" transform="translate(-291 -1086)"/>
</svg>

